<svg width="1280" height="720" xmlns="http://www.w3.org/2000/svg" xmlns:xlink="http://www.w3.org/1999/xlink" overflow="hidden"><defs><filter id="fx0" x="-10%" y="-10%" width="120%" height="120%" filterUnits="userSpaceOnUse" primitiveUnits="userSpaceOnUse"><feComponentTransfer color-interpolation-filters="sRGB"><feFuncR type="discrete" tableValues="0 0"/><feFuncG type="discrete" tableValues="0 0"/><feFuncB type="discrete" tableValues="0 0"/><feFuncA type="linear" slope="0.4" intercept="0"/></feComponentTransfer><feGaussianBlur stdDeviation="3.55556 3.55556"/></filter><filter id="fx1" x="-10%" y="-10%" width="120%" height="120%" filterUnits="userSpaceOnUse" primitiveUnits="userSpaceOnUse"><feComponentTransfer color-interpolation-filters="sRGB"><feFuncR type="discrete" tableValues="0 0"/><feFuncG type="discrete" tableValues="0 0"/><feFuncB type="discrete" tableValues="0 0"/><feFuncA type="linear" slope="0.14902" intercept="0"/></feComponentTransfer><feGaussianBlur stdDeviation="2.22222 2.22222"/></filter><filter id="fx2" x="-10%" y="-10%" width="120%" height="120%" filterUnits="userSpaceOnUse" primitiveUnits="userSpaceOnUse"><feComponentTransfer color-interpolation-filters="sRGB"><feFuncR type="discrete" tableValues="0 0"/><feFuncG type="discrete" tableValues="0 0"/><feFuncB type="discrete" tableValues="0 0"/><feFuncA type="linear" slope="0.14902" intercept="0"/></feComponentTransfer><feGaussianBlur stdDeviation="2.22222 2.22222"/></filter><filter id="fx3" x="-10%" y="-10%" width="120%" height="120%" filterUnits="userSpaceOnUse" primitiveUnits="userSpaceOnUse"><feComponentTransfer color-interpolation-filters="sRGB"><feFuncR type="discrete" tableValues="0 0"/><feFuncG type="discrete" tableValues="0 0"/><feFuncB type="discrete" tableValues="0 0"/><feFuncA type="linear" slope="0.14902" intercept="0"/></feComponentTransfer><feGaussianBlur stdDeviation="2.22222 2.22222"/></filter><filter id="fx4" x="-10%" y="-10%" width="120%" height="120%" filterUnits="userSpaceOnUse" primitiveUnits="userSpaceOnUse"><feComponentTransfer color-interpolation-filters="sRGB"><feFuncR type="discrete" tableValues="0 0"/><feFuncG type="discrete" tableValues="0 0"/><feFuncB type="discrete" tableValues="0 0"/><feFuncA type="linear" slope="0.14902" intercept="0"/></feComponentTransfer><feGaussianBlur stdDeviation="2.22222 2.22222"/></filter><filter id="fx5" x="-10%" y="-10%" width="120%" height="120%" filterUnits="userSpaceOnUse" primitiveUnits="userSpaceOnUse"><feComponentTransfer color-interpolation-filters="sRGB"><feFuncR type="discrete" tableValues="0 0"/><feFuncG type="discrete" tableValues="0 0"/><feFuncB type="discrete" tableValues="0 0"/><feFuncA type="linear" slope="0.14902" intercept="0"/></feComponentTransfer><feGaussianBlur stdDeviation="2.22222 2.22222"/></filter><filter id="fx6" x="-10%" y="-10%" width="120%" height="120%" filterUnits="userSpaceOnUse" primitiveUnits="userSpaceOnUse"><feComponentTransfer color-interpolation-filters="sRGB"><feFuncR type="discrete" tableValues="0 0"/><feFuncG type="discrete" tableValues="0 0"/><feFuncB type="discrete" tableValues="0 0"/><feFuncA type="linear" slope="0.14902" intercept="0"/></feComponentTransfer><feGaussianBlur stdDeviation="2.22222 2.22222"/></filter><clipPath id="clip7"><rect x="0" y="0" width="1280" height="720"/></clipPath></defs><g clip-path="url(#clip7)"><rect x="0" y="0" width="1280" height="720" fill="#FAF9F6"/><g filter="url(#fx0)" transform="translate(-10 -5)"><g><rect x="11.72" y="12.2" width="168.56" height="705.6" fill="#FFFFFF"/></g></g><rect x="0" y="0" width="172" height="720" fill="#FFFFFF"/><g filter="url(#fx1)" transform="translate(226 118)"><g><path d="M8 15.3335C8 11.2833 11.2833 8 15.3335 8L157.666 8C161.717 8 165 11.2833 165 15.3335L165 116.666C165 120.717 161.717 124 157.666 124L15.3335 124C11.2833 124 8 120.717 8 116.666Z" fill="#FFFFFF" fill-rule="evenodd"/></g></g><path d="M234 133.334C234 129.283 237.283 126 241.334 126L383.666 126C387.717 126 391 129.283 391 133.334L391 234.666C391 238.717 387.717 242 383.666 242L241.334 242C237.283 242 234 238.717 234 234.666Z" fill="#FFFFFF" fill-rule="evenodd"/><g filter="url(#fx2)" transform="translate(226 254)"><g><path d="M8 15.3335C8 11.2833 11.2833 8 15.3335 8L331.667 8C335.717 8 339 11.2833 339 15.3335L339 116.667C339 120.717 335.717 124 331.667 124L15.3335 124C11.2833 124 8 120.717 8 116.667Z" fill="#FFFFFF" fill-rule="evenodd"/></g></g><path d="M234 269.333C234 265.283 237.283 262 241.333 262L557.667 262C561.717 262 565 265.283 565 269.333L565 370.667C565 374.717 561.717 378 557.667 378L241.333 378C237.283 378 234 374.717 234 370.667Z" fill="#FFFFFF" fill-rule="evenodd"/><g filter="url(#fx3)" transform="translate(226 391)"><g><path d="M8 24.5633C8 15.4156 15.4156 8 24.5633 8L982.437 8C991.584 8 999 15.4156 999 24.5633L999 253.437C999 262.584 991.584 270 982.437 270L24.5633 270C15.4156 270 8 262.584 8 253.437Z" fill="#FFFFFF" fill-rule="evenodd"/></g></g><path d="M234 415.563C234 406.416 241.416 399 250.563 399L1208.44 399C1217.58 399 1225 406.416 1225 415.563L1225 644.437C1225 653.584 1217.58 661 1208.44 661L250.563 661C241.416 661 234 653.584 234 644.437Z" fill="#FFFFFF" fill-rule="evenodd"/><g filter="url(#fx4)" transform="translate(578 118)"><g><path d="M8 23.9945C8 15.161 15.161 8 23.9945 8L303.005 8C311.839 8 319 15.161 319 23.9945L319 245.005C319 253.839 311.839 261 303.005 261L23.9945 261C15.161 261 8 253.839 8 245.005Z" fill="#FFFFFF" fill-rule="evenodd"/></g></g><path d="M586 141.995C586 133.161 593.161 126 601.995 126L881.005 126C889.839 126 897 133.161 897 141.995L897 363.005C897 371.839 889.839 379 881.005 379L601.995 379C593.161 379 586 371.839 586 363.005Z" fill="#FFFFFF" fill-rule="evenodd"/><g filter="url(#fx5)" transform="translate(910 117)"><g><path d="M8 23.9946C8 15.161 15.161 8 23.9946 8L299.005 8C307.839 8 315 15.161 315 23.9946L315 245.005C315 253.839 307.839 261 299.005 261L23.9946 261C15.161 261 8 253.839 8 245.005Z" fill="#FFFFFF" fill-rule="evenodd"/></g></g><path d="M918 140.995C918 132.161 925.161 125 933.995 125L1209.01 125C1217.84 125 1225 132.161 1225 140.995L1225 362.005C1225 370.839 1217.84 378 1209.01 378L933.995 378C925.161 378 918 370.839 918 362.005Z" fill="#FFFFFF" fill-rule="evenodd"/><path d="M222 127.5C222 119.492 228.716 113 237 113 245.284 113 252 119.492 252 127.5 252 135.508 245.284 142 237 142 228.716 142 222 135.508 222 127.5Z" fill="#FFFFFF" fill-rule="evenodd"/><path d="M574 127.5C574 119.492 580.94 113 589.5 113 598.06 113 605 119.492 605 127.5 605 135.508 598.06 142 589.5 142 580.94 142 574 135.508 574 127.5Z" fill="#FFFFFF" fill-rule="evenodd"/><path d="M221 265.5C221 257.492 227.716 251 236 251 244.284 251 251 257.492 251 265.5 251 273.508 244.284 280 236 280 227.716 280 221 273.508 221 265.5Z" fill="#FFFFFF" fill-rule="evenodd"/><path d="M222 398.5C222 390.492 228.94 384 237.5 384 246.06 384 253 390.492 253 398.5 253 406.508 246.06 413 237.5 413 228.94 413 222 406.508 222 398.5Z" fill="#FFFFFF" fill-rule="evenodd"/><g><g><g><path d="M17.7292 13.6562C17.2021 13.6562 16.7708 13.225 16.7708 12.6979 16.7708 12.1708 17.2021 11.7396 17.7292 11.7396 18.2562 11.7396 18.6875 12.1708 18.6875 12.6979 18.6875 13.225 18.2562 13.6562 17.7292 13.6562ZM20.125 10.3021 19.6458 10.3021 19.6458 7.66667C19.6458 7.13958 19.2146 6.70833 18.6875 6.70833L5.27083 6.70833C5.00729 6.70833 4.79167 6.49271 4.79167 6.22917 4.79167 5.96562 5.00729 5.75 5.27083 5.75L18.6875 5.75 18.6875 5.27083C18.6875 4.74375 18.2562 4.3125 17.7292 4.3125L5.27083 4.3125C4.21667 4.3125 3.35417 5.175 3.35417 6.22917L3.35417 16.7708C3.35417 17.825 4.21667 18.6875 5.27083 18.6875L18.6875 18.6875C19.2146 18.6875 19.6458 18.2562 19.6458 17.7292L19.6458 15.0938 20.125 15.0938C20.3885 15.0938 20.6042 14.8781 20.6042 14.6146L20.6042 10.7812C20.6042 10.5177 20.3885 10.3021 20.125 10.3021Z" fill="#5C6AED" transform="matrix(1.04348 0 0 1 225 116)"/></g></g></g><g><g><g><path d="M593.075 133.275C592.7 132.9 592.475 132.375 592.475 131.85L592.325 131.7C590.05 133.1 587.15 132.95 585.025 131.325L584.95 131.375C584.675 131.575 584.5 131.9 584.5 132.25L584.5 134.5 593.5 134.5 593.5 133.7 593.075 133.275Z" fill="#5C6AED"/><path d="M595.375 125.875C596.6 125.675 597.425 124.5 597.225 123.275 597.025 122.05 595.85 121.225 594.625 121.425 594.275 121.475 593.95 121.625 593.675 121.825 594.7 122.925 595.3 124.35 595.375 125.875Z" fill="#5C6AED"/><path d="M599.05 127.85C598.4 127.35 597.65 126.975 596.85 126.8 596.375 126.65 595.875 126.575 595.375 126.525 595.325 127.6 595 128.65 594.425 129.575L594.575 129.725C595.1 129.725 595.625 129.95 596 130.325L596.675 131 599.5 131 599.5 128.75C599.5 128.4 599.35 128.05 599.05 127.85Z" fill="#5C6AED"/><path d="M597.85 133.225 595.5 130.85C595.175 130.55 594.75 130.4 594.3 130.5L593.45 129.675C594.225 128.675 594.625 127.475 594.625 126.225 594.65 123.075 592.1 120.5 588.925 120.475 585.75 120.45 583.225 123 583.225 126.15 583.225 129.3 585.75 131.875 588.925 131.9 590.175 131.9 591.4 131.5 592.425 130.725L593.275 131.55C593.2 131.975 593.325 132.425 593.625 132.75L596 135.125C596.5 135.65 597.35 135.675 597.875 135.175 598.4 134.675 598.425 133.825 597.925 133.3 597.9 133.275 597.875 133.25 597.85 133.225L597.85 133.225ZM588.95 121.65C591.475 121.65 593.5 123.675 593.5 126.2 593.5 127.275 593.125 128.325 592.425 129.125 591.95 128.9 591.475 128.725 590.975 128.6 590.3 128.4 589.6 128.275 588.9 128.275 588.2 128.275 587.5 128.4 586.825 128.6 586.35 128.725 585.9 128.9 585.475 129.15 583.85 127.25 584.075 124.375 585.975 122.75 586.8 122.025 587.85 121.65 588.95 121.65Z" fill="#5C6AED"/><path d="M591.425 125.2C591.425 126.595 590.294 127.725 588.9 127.725 587.505 127.725 586.375 126.595 586.375 125.2 586.375 123.805 587.505 122.675 588.9 122.675 590.294 122.675 591.425 123.805 591.425 125.2Z" fill="#5C6AED"/><path d="M582.5 126.525C582.05 126.575 581.6 126.65 581.15 126.8 580.375 127.025 579.625 127.4 578.95 127.85 578.65 128.05 578.5 128.4 578.5 128.75L578.5 131 583.9 131C584 130.85 584.125 130.725 584.275 130.625 583.2 129.5 582.575 128.05 582.5 126.525Z" fill="#5C6AED"/><path d="M582.5 125.85C582.575 124.325 583.2 122.9 584.25 121.775 583.225 121.075 581.825 121.35 581.125 122.4 580.425 123.45 580.7 124.825 581.75 125.525 581.975 125.675 582.225 125.775 582.5 125.85Z" fill="#5C6AED"/></g></g></g><g><g><g><path d="M245.5 272C245.5 272.325 245.125 272.625 244.5 272.85L244.5 271.95C244.85 271.85 245.2 271.7 245.5 271.55L245.5 272ZM243.5 270.35 243.5 269.45C243.85 269.35 244.2 269.2 244.5 269.05L244.5 269.5C244.5 269.825 244.125 270.125 243.5 270.35ZM243.5 273.15C243.2 273.225 242.85 273.275 242.5 273.325L242.5 272.35C242.825 272.3 243.175 272.25 243.5 272.2L243.5 273.15ZM241.5 269.85C241.825 269.8 242.175 269.75 242.5 269.7L242.5 270.65C242.2 270.725 241.85 270.775 241.5 270.825L241.5 269.85ZM241.5 273.45C241.175 273.475 240.85 273.5 240.5 273.5L240.5 272.5C240.8 272.5 241.15 272.475 241.5 272.45L241.5 273.45ZM239.5 271 239.5 270C239.8 270 240.15 269.975 240.5 269.95L240.5 270.95C240.175 270.975 239.85 270.975 239.5 271ZM239.5 273.5C239.15 273.5 238.825 273.475 238.5 273.45L238.5 272.5C238.675 272.5 238.825 272.5 239 272.5 239.15 272.5 239.325 272.5 239.5 272.5L239.5 273.5ZM237.5 269.95C237.825 269.975 238.15 270 238.5 270L238.5 271C238.15 271 237.825 270.975 237.5 270.95L237.5 269.95ZM237.5 273.325C237.15 273.275 236.8 273.225 236.5 273.15L236.5 272.35C236.825 272.4 237.15 272.425 237.5 272.45L237.5 273.325ZM235.5 270.65 235.5 269.675C235.825 269.725 236.15 269.8 236.5 269.825L236.5 270.825C236.15 270.775 235.8 270.725 235.5 270.65ZM235.5 272.85C234.875 272.6 234.5 272.3 234.5 272L234.5 271.95C234.5 271.95 234.5 271.95 234.525 271.95 234.6 271.975 234.65 272 234.725 272 234.975 272.075 235.225 272.125 235.5 272.175L235.5 272.85ZM231.5 269.45C231.675 269.45 231.825 269.475 232 269.475L232 269.5C232 269.85 232.075 270.2 232.25 270.475 232 270.475 231.75 270.45 231.5 270.425L231.5 269.45ZM230.5 266.45C230.825 266.5 231.15 266.575 231.5 266.6L231.5 267.6C231.15 267.55 230.8 267.5 230.5 267.425L230.5 266.45ZM230.5 270.325C230.15 270.275 229.8 270.225 229.5 270.15L229.5 269.175C229.825 269.225 230.15 269.3 230.5 269.325L230.5 270.325ZM228.5 266.25 228.5 265.8C228.8 265.95 229.125 266.075 229.5 266.175L229.5 267.1C228.875 266.875 228.5 266.575 228.5 266.25ZM228.5 269.85C227.875 269.6 227.5 269.3 227.5 269L227.5 268.55C227.8 268.7 228.125 268.825 228.5 268.925L228.5 269.85ZM227.5 262.05C227.8 262.2 228.125 262.325 228.5 262.425L228.5 263.35C227.875 263.1 227.5 262.8 227.5 262.5L227.5 262.05ZM230.5 262.85 230.5 263.85C230.15 263.8 229.8 263.75 229.5 263.675L229.5 262.7C229.825 262.75 230.15 262.8 230.5 262.85ZM233 258.5C236.05 258.5 238.5 259.175 238.5 260 238.5 260.825 236.05 261.5 233 261.5 229.95 261.5 227.5 260.825 227.5 260 227.5 259.175 229.95 258.5 233 258.5ZM234.5 270.35C233.875 270.1 233.5 269.8 233.5 269.5L233.5 269.05C233.8 269.2 234.125 269.325 234.5 269.425L234.5 270.35ZM237.5 263.35 237.5 262.45C237.85 262.35 238.2 262.2 238.5 262.05L238.5 262.5C238.5 262.825 238.125 263.125 237.5 263.35ZM235.5 263.825 235.5 262.85C235.825 262.8 236.175 262.75 236.5 262.7L236.5 263.65C236.2 263.725 235.85 263.775 235.5 263.825ZM233.5 264 233.5 263C233.8 263 234.15 262.975 234.5 262.95L234.5 263.95C234.175 263.975 233.85 263.975 233.5 264ZM231.5 263.95 231.5 262.95C231.825 262.975 232.15 263 232.5 263L232.5 264C232.15 263.975 231.825 263.975 231.5 263.95ZM244.5 267C244.5 267.825 242.05 268.5 239 268.5 235.95 268.5 233.5 267.825 233.5 267 233.5 266.175 235.95 265.5 239 265.5 242.05 265.5 244.5 266.175 244.5 267ZM246 267.75 246 267C246 265.825 245.075 264.975 243.275 264.5 242.6 264.325 241.825 264.175 240.95 264.1 240.975 264 240.975 263.875 240.975 263.75 240.975 263.05 240.65 262.45 239.975 262L239.975 260C239.975 258.825 239.05 257.975 237.25 257.5 236.075 257.175 234.575 257 232.975 257 230.875 257 225.975 257.3 225.975 260L225.975 262.5C225.975 263.2 226.3 263.8 226.975 264.25L226.975 264.725C226.375 265.15 225.975 265.725 225.975 266.5L225.975 269C225.975 270.175 226.9 271.025 228.7 271.5 229.875 271.825 231.375 272 232.975 272 232.975 273.175 233.9 274.025 235.7 274.5 236.875 274.825 238.375 275 239.975 275 242.075 275 246.975 274.7 246.975 272L246.975 269.5C247 268.8 246.675 268.2 246 267.75Z" fill="#5C6AED"/></g></g></g><g><g><g><path d="M244 394 244 396 242 396 242 394 244 394ZM230 403 232 403 232 405 230 405 230 403ZM235 394 235 396 233 396 233 394 235 394ZM238 394 238 396 236 396 236 394 238 394ZM241 399 239 399 239 397 241 397 241 399ZM242 399 242 397 244 397 244 399 242 399ZM242 402 242 400 244 400 244 402 242 402ZM236 403 238 403 238 405 236 405 236 403ZM235 403 235 405 233 405 233 403 235 403ZM233 400 235 400 235 402 233 402 233 400ZM232 400 232 402 230 402 230 400 232 400ZM232 397 232 399 230 399 230 397 232 397ZM235 399 233 399 233 397 235 397 235 399ZM236 399 236 397 238 397 238 399 236 399ZM238 402 236 402 236 400 238 400 238 402ZM239 402 239 400 241 400 241 402 239 402ZM241 394 241 396 239 396 239 394 241 394ZM228.5 392.5 228.5 406.5 245.5 406.5 245.5 392.5 228.5 392.5Z" fill="#5C6AED"/><path d="M228.5 389.5 245.5 389.5 245.5 391.5 228.5 391.5Z" fill="#5C6AED"/></g></g></g><g filter="url(#fx6)" transform="translate(402 118)"><g><path d="M8 15.3335C8 11.2833 11.2833 8 15.3335 8L157.666 8C161.717 8 165 11.2833 165 15.3335L165 116.666C165 120.717 161.717 124 157.666 124L15.3335 124C11.2833 124 8 120.717 8 116.666Z" fill="#FFFFFF" fill-rule="evenodd"/></g></g><path d="M410 133.334C410 129.283 413.283 126 417.334 126L559.666 126C563.717 126 567 129.283 567 133.334L567 234.666C567 238.717 563.717 242 559.666 242L417.334 242C413.283 242 410 238.717 410 234.666Z" fill="#FFFFFF" fill-rule="evenodd"/><path d="M398 127C398 119.268 404.716 113 413 113 421.284 113 428 119.268 428 127 428 134.732 421.284 141 413 141 404.716 141 398 134.732 398 127Z" fill="#FFFFFF" fill-rule="evenodd"/><g><g><g><path d="M406.95 124.15C404.225 126.875 404.225 131.325 406.95 134.05 409.675 136.775 414.125 136.775 416.85 134.05 419.4 131.5 419.575 127.45 417.35 124.7L419.675 122.375 421.1 123.8 421.1 119.9 417.2 119.9 418.625 121.325 416.3 123.65C413.55 121.425 409.5 121.6 406.95 124.15ZM415.8 132.975C413.65 135.125 410.175 135.125 408.025 132.975 405.875 130.825 405.875 127.35 408.025 125.2 410.175 123.05 413.65 123.05 415.8 125.2 417.95 127.35 417.925 130.85 415.8 132.975Z" fill="#5C6AED"/></g></g></g><path d="M905 128.5C905 120.492 911.94 114 920.5 114 929.06 114 936 120.492 936 128.5 936 136.508 929.06 143 920.5 143 911.94 143 905 136.508 905 128.5Z" fill="#FFFFFF" fill-rule="evenodd"/><g><g><g><path d="M11.5 2.39583C6.46875 2.39583 2.39583 6.46875 2.39583 11.5 2.39583 16.5312 6.46875 20.6042 11.5 20.6042 16.5312 20.6042 20.6042 16.5312 20.6042 11.5 20.6042 6.46875 16.5312 2.39583 11.5 2.39583ZM3.35417 11.5C3.35417 9.36771 4.16875 7.45104 5.51042 5.98958 5.72604 6.10938 5.94167 6.30104 5.98958 6.46875L5.98958 7.97812C5.98958 8.07396 6.01354 8.19375 6.08542 8.26562L7.66667 10.3021 7.78646 10.1823C7.85833 10.1104 7.88229 9.99063 7.83437 9.89479L7.54688 9.41562C7.42708 9.22396 7.61875 8.98438 7.83437 9.05625 7.90625 9.08021 7.95417 9.12812 7.97812 9.17604L8.76875 10.7333C8.86458 10.901 9.00833 11.0448 9.17604 11.0927L10.2302 11.4521C10.3021 11.476 10.35 11.524 10.374 11.5719L10.4458 11.6917C10.5177 11.8594 10.6854 11.9552 10.8771 11.9552L11.1646 11.9552C11.2365 11.9552 11.3083 12.0031 11.3562 12.051L11.6677 12.5063C11.7396 12.6021 11.8354 12.674 11.9552 12.6979L12.4583 12.8177C12.6021 12.8417 12.674 13.0094 12.626 13.1292 12.626 13.1292 12.2427 13.5125 12.2427 14.0635 12.2427 15.6448 13.6802 16.1 13.6802 16.4594 13.6802 17.4417 13.5365 18.8073 13.4646 19.3344 12.8417 19.4781 12.1948 19.574 11.524 19.574 7.01979 19.6458 3.35417 15.9802 3.35417 11.5ZM14.5667 19.0469C15.0938 18.5917 15.9802 17.825 16.2917 17.4896 16.699 17.0344 16.7708 16.2917 16.7708 16.2917 16.7708 16.2917 18.4479 15.8365 18.4479 14.6146 18.4479 13.776 16.7708 13.4167 16.7708 13.4167 16.4833 12.4823 15.0698 11.9792 13.8958 11.9792 13.6323 11.9792 12.6979 12.4583 12.6979 12.4583L12.2188 12.2188 12.2188 11.5C12.2188 11.3562 12.1229 11.2604 11.9792 11.2604L11.5 11.2604 11.5 10.5417C11.5 10.3979 11.4042 10.3021 11.2604 10.3021L11.0208 10.3021 10.7573 10.4698C10.5177 10.6375 10.1823 10.5417 10.0625 10.2781 10.0625 10.2781 9.82292 9.94271 9.82292 9.79896 9.82292 8.76875 11.0208 8.84062 11.0208 8.84062L11.5479 8.84062C11.6677 8.84062 11.7635 8.9125 11.7875 9.03229L11.9312 9.63125C11.9552 9.72708 12.051 9.82292 12.1708 9.82292L12.2667 9.82292C12.3865 9.82292 12.4823 9.75104 12.5063 9.63125L12.674 8.74479C12.6979 8.67292 12.7219 8.60104 12.7698 8.52917L13.4406 7.69062C13.5844 7.52292 13.776 7.42708 13.9917 7.42708L14.6146 7.42708C14.7583 7.42708 14.8542 7.33125 14.8542 7.1875L14.8542 6.94792 14.7823 6.87604C14.6385 6.73229 14.7344 6.46875 14.95 6.46875L15.0938 6.46875C15.2375 6.46875 15.3333 6.56458 15.3333 6.70833 15.3333 6.85208 15.4292 6.94792 15.5729 6.94792L15.8125 6.94792 15.9562 6.325C16.0042 6.10938 15.9083 5.91771 15.7406 5.79792L13.7042 4.57604C13.6802 4.55208 13.6323 4.55208 13.5844 4.55208L13.1771 4.55208C12.9135 4.55208 12.6979 4.76771 12.6979 5.03125L12.6979 5.27083C12.6979 5.41458 12.6021 5.51042 12.4583 5.51042L12.2188 5.51042 11.9792 5.27083 11.2604 5.27083C11.1167 5.27083 11.0208 5.175 11.0208 5.03125L11.0208 4.43229C11.0208 4.36042 11.0448 4.28854 11.1167 4.24062L12.65 3.59375 12.8896 4.00104C12.9375 4.04896 12.9854 4.07292 13.0573 4.07292L13.6562 4.07292C13.8 4.07292 13.8958 3.97708 13.8958 3.83333L13.8958 3.71354C17.226 4.74375 19.6458 7.83437 19.6458 11.5 19.6458 14.9021 17.5375 17.825 14.5667 19.0469Z" fill="#5C6AED" transform="matrix(1 0 0 1.04348 909 117)"/><path d="M14.4469 10.4937 13.2969 10.1104C13.201 10.0865 13.1292 10.0865 13.0333 10.1104L12.2188 10.3021C12.1469 10.35 12.1229 10.4458 12.2188 10.5417L13.3208 10.5417C13.3927 10.5417 13.4406 10.5417 13.4885 10.5656L14.3271 10.901C14.4708 10.949 14.6146 10.8531 14.6146 10.7094 14.6146 10.6135 14.5427 10.5177 14.4469 10.4937Z" fill="#5C6AED" transform="matrix(1 0 0 1.04348 909 117)"/></g></g></g><g><g><g><path d="M13.3333 6.25C13.3333 8.09095 11.8409 9.58333 10 9.58333 8.15905 9.58333 6.66667 8.09095 6.66667 6.25 6.66667 4.40905 8.15905 2.91667 10 2.91667 11.8409 2.91667 13.3333 4.40905 13.3333 6.25Z" fill="#5C6AED" transform="matrix(1.05 0 0 1 14 129)"/><path d="M16.6667 17.0833 16.6667 13.75C16.6667 13.25 16.4167 12.75 16 12.4167 15.0833 11.6667 13.9167 11.1667 12.75 10.8333 11.9167 10.5833 11 10.4167 10 10.4167 9.08333 10.4167 8.16667 10.5833 7.25 10.8333 6.08333 11.1667 4.91667 11.75 4 12.4167 3.58333 12.75 3.33333 13.25 3.33333 13.75L3.33333 17.0833 16.6667 17.0833Z" fill="#5C6AED" transform="matrix(1.05 0 0 1 14 129)"/></g></g></g><g><g><g><path d="M13.1104 10.4167C12.4062 9.81667 11.4917 9.53542 10.625 9.26458L10.625 4.22708C11.4665 4.30704 12.2528 4.68104 12.8458 5.28333L13.8458 4.325C12.99 3.45444 11.8433 2.93 10.625 2.85208L10.625 1.04167 9.375 1.04167 9.375 2.93125C8.94696 3.01456 8.53398 3.16206 8.15 3.36875 6.57083 4.22917 5.76458 6.25 6.4125 7.95208 6.91458 9.26458 8.125 9.85 9.375 10.2896L9.375 15.7437C8.40625 15.625 7.60208 15.0688 6.93542 14.375L5.93542 15.3312C6.41156 15.8715 6.97929 16.3236 7.6125 16.6667 8.16594 16.9299 8.76369 17.0875 9.375 17.1313L9.375 18.9583 10.625 18.9583 10.625 17.0833C12.0583 16.8438 13.375 15.9625 13.9417 14.5833 14.5083 13.2042 14.3021 11.4354 13.1104 10.4167ZM8.33333 8.27708C7.1875 7.31042 7.46667 5.43958 8.68125 4.66458 8.89652 4.52652 9.13002 4.41923 9.375 4.34583L9.375 8.86458C8.99781 8.7274 8.64587 8.5289 8.33333 8.27708ZM12.1021 14.9062C11.6955 15.3038 11.1824 15.5751 10.625 15.6875L10.625 10.7104C11.4583 10.9958 12.4146 11.3583 12.7542 12.2458 13.0937 13.1333 12.7521 14.2438 12.1021 14.9062Z" fill="#A6A6A6" transform="matrix(1.05 0 0 1 14 91)"/></g></g></g><g><g><g><path d="M28.9583 170.229C28.9583 171.15 28.2121 171.896 27.2917 171.896 26.3712 171.896 25.625 171.15 25.625 170.229 25.625 169.309 26.3712 168.562 27.2917 168.562 28.2121 168.562 28.9583 169.309 28.9583 170.229Z" fill="#A6A6A6"/><path d="M19.7917 178.354C17.8333 178.354 16.25 179.938 16.25 181.896 16.25 183.854 17.8333 185.438 19.7917 185.438 21.75 185.438 23.3333 183.854 23.3333 181.896 23.3333 179.938 21.75 178.354 19.7917 178.354ZM19.7917 184.604C18.2917 184.604 17.0833 183.396 17.0833 181.896 17.0833 180.396 18.2917 179.188 19.7917 179.188 21.2917 179.188 22.5 180.396 22.5 181.896 22.5 183.396 21.2917 184.604 19.7917 184.604Z" fill="#A6A6A6"/><path d="M30.2083 178.354C28.25 178.354 26.6667 179.938 26.6667 181.896 26.6667 183.854 28.25 185.438 30.2083 185.438 32.1667 185.438 33.75 183.854 33.75 181.896 33.75 179.938 32.1667 178.354 30.2083 178.354ZM30.2083 184.604C28.7083 184.604 27.5 183.396 27.5 181.896 27.5 180.396 28.7083 179.188 30.2083 179.188 31.7083 179.188 32.9167 180.396 32.9167 181.896 32.9167 183.396 31.7083 184.604 30.2083 184.604Z" fill="#A6A6A6"/><path d="M26.6042 175.292C26.7708 175.458 26.9792 175.542 27.1875 175.542L29.5833 175.542C30.0417 175.542 30.4167 175.167 30.4167 174.708 30.4167 174.25 30.0417 173.875 29.5833 173.875L27.5417 173.875C27.5417 173.875 25.1667 171.479 25.125 171.458 24.6042 171 23.8125 171.062 23.3542 171.583L20.5208 174.812C20.0625 175.333 20.125 176.125 20.625 176.583 20.75 176.688 20.875 176.771 21.0208 176.812L21.0208 176.812 24.1458 178.062 24.1458 181.875C24.1458 182.333 24.5208 182.708 24.9792 182.708 25.4375 182.708 25.8125 182.333 25.8125 181.875L25.8125 177.5C25.8125 177.167 25.6042 176.854 25.3125 176.729L23 175.75 24.8958 173.583 26.6042 175.292Z" fill="#A6A6A6"/></g></g></g><path d="M8.50005 74.5001 164.5 74.5002" stroke="#5C6AED" stroke-width="0.666667" stroke-miterlimit="8" fill="none" fill-rule="evenodd"/><path d="M9.50005 204.5 164.689 204.5" stroke="#5C6AED" stroke-width="0.666667" stroke-miterlimit="8" fill="none" fill-rule="evenodd"/><g><g><g><path d="M47.125 30.6354C47.125 32.1254 45.9171 33.3333 44.4271 33.3333 42.9371 33.3333 41.7292 32.1254 41.7292 30.6354 41.7292 29.1454 42.9371 27.9375 44.4271 27.9375 45.9171 27.9375 47.125 29.1454 47.125 30.6354Z" fill="#5C6AED"/><path d="M37.875 46.8229C37.875 49.1644 35.9769 51.0625 33.6354 51.0625 31.294 51.0625 29.3958 49.1644 29.3958 46.8229 29.3958 44.4815 31.294 42.5833 33.6354 42.5833 35.9769 42.5833 37.875 44.4815 37.875 46.8229Z" fill="#5C6AED"/><path d="M55.6042 46.8229C55.6042 49.1644 53.706 51.0625 51.3646 51.0625 49.0231 51.0625 47.125 49.1644 47.125 46.8229 47.125 44.4815 49.0231 42.5833 51.3646 42.5833 53.706 42.5833 55.6042 44.4815 55.6042 46.8229Z" fill="#5C6AED"/><path d="M43.7333 39.8083 41.8063 39.6156 43.6177 36.4938 47.7417 38.7292C47.7031 38.7677 47.7031 38.8063 47.6646 38.8448L44.4271 40.6562 44.4271 40.5792C44.4271 40.1937 44.1188 39.8469 43.7333 39.8083ZM51.3646 41.4271C52.0969 41.4271 52.7906 41.5812 53.4073 41.851 53.7927 41.1573 54.0625 40.3479 54.0625 39.5 54.0625 36.9562 51.9812 34.875 49.4375 34.875 48.8979 34.875 48.3969 34.9906 47.8958 35.1448 48.0885 35.5302 48.2042 35.9542 48.2427 36.4167L43.0396 33.5646C42.9625 33.526 42.8854 33.4875 42.8083 33.4875 41.9219 33.1406 40.9198 33.449 40.4187 34.2969L37.7208 38.9219C37.6823 38.999 37.6437 39.1146 37.6052 39.1917L29.3958 38.3438 29.3958 39.8854 35.1771 41.6583C37.4125 42.3135 39.0312 44.3948 39.0312 46.8229 39.0312 47.3625 38.9542 47.8635 38.8 48.3646L46.2 48.3646C46.0458 47.8635 45.9688 47.3625 45.9688 46.8229 45.9688 43.8552 48.3969 41.4271 51.3646 41.4271Z" fill="#5C6AED"/></g></g></g><text fill="#5C6AED" font-family="Aptos Black,Aptos Black_MSFontService,sans-serif" font-weight="900" font-size="13" transform="translate(76.4534 37)">Adventure</text><text fill="#5C6AED" font-family="Aptos Black,Aptos Black_MSFontService,sans-serif" font-weight="900" font-size="13" transform="translate(76.4534 53)">Works</text></g></svg>