<svg width="1280" height="720" xmlns="http://www.w3.org/2000/svg" xmlns:xlink="http://www.w3.org/1999/xlink" overflow="hidden"><defs><filter id="fx0" x="-10%" y="-10%" width="120%" height="120%" filterUnits="userSpaceOnUse" primitiveUnits="userSpaceOnUse"><feComponentTransfer color-interpolation-filters="sRGB"><feFuncR type="discrete" tableValues="0 0"/><feFuncG type="discrete" tableValues="0 0"/><feFuncB type="discrete" tableValues="0 0"/><feFuncA type="linear" slope="0.4" intercept="0"/></feComponentTransfer><feGaussianBlur stdDeviation="3.55556 3.55556"/></filter><filter id="fx1" x="-10%" y="-10%" width="120%" height="120%" filterUnits="userSpaceOnUse" primitiveUnits="userSpaceOnUse"><feComponentTransfer color-interpolation-filters="sRGB"><feFuncR type="discrete" tableValues="0 0"/><feFuncG type="discrete" tableValues="0 0"/><feFuncB type="discrete" tableValues="0 0"/><feFuncA type="linear" slope="0.14902" intercept="0"/></feComponentTransfer><feGaussianBlur stdDeviation="2.22222 2.22222"/></filter><filter id="fx2" x="-10%" y="-10%" width="120%" height="120%" filterUnits="userSpaceOnUse" primitiveUnits="userSpaceOnUse"><feComponentTransfer color-interpolation-filters="sRGB"><feFuncR type="discrete" tableValues="0 0"/><feFuncG type="discrete" tableValues="0 0"/><feFuncB type="discrete" tableValues="0 0"/><feFuncA type="linear" slope="0.14902" intercept="0"/></feComponentTransfer><feGaussianBlur stdDeviation="2.22222 2.22222"/></filter><filter id="fx3" x="-10%" y="-10%" width="120%" height="120%" filterUnits="userSpaceOnUse" primitiveUnits="userSpaceOnUse"><feComponentTransfer color-interpolation-filters="sRGB"><feFuncR type="discrete" tableValues="0 0"/><feFuncG type="discrete" tableValues="0 0"/><feFuncB type="discrete" tableValues="0 0"/><feFuncA type="linear" slope="0.14902" intercept="0"/></feComponentTransfer><feGaussianBlur stdDeviation="2.22222 2.22222"/></filter><filter id="fx4" x="-10%" y="-10%" width="120%" height="120%" filterUnits="userSpaceOnUse" primitiveUnits="userSpaceOnUse"><feComponentTransfer color-interpolation-filters="sRGB"><feFuncR type="discrete" tableValues="0 0"/><feFuncG type="discrete" tableValues="0 0"/><feFuncB type="discrete" tableValues="0 0"/><feFuncA type="linear" slope="0.14902" intercept="0"/></feComponentTransfer><feGaussianBlur stdDeviation="2.22222 2.22222"/></filter><filter id="fx5" x="-10%" y="-10%" width="120%" height="120%" filterUnits="userSpaceOnUse" primitiveUnits="userSpaceOnUse"><feComponentTransfer color-interpolation-filters="sRGB"><feFuncR type="discrete" tableValues="0 0"/><feFuncG type="discrete" tableValues="0 0"/><feFuncB type="discrete" tableValues="0 0"/><feFuncA type="linear" slope="0.14902" intercept="0"/></feComponentTransfer><feGaussianBlur stdDeviation="2.22222 2.22222"/></filter><filter id="fx6" x="-10%" y="-10%" width="120%" height="120%" filterUnits="userSpaceOnUse" primitiveUnits="userSpaceOnUse"><feComponentTransfer color-interpolation-filters="sRGB"><feFuncR type="discrete" tableValues="0 0"/><feFuncG type="discrete" tableValues="0 0"/><feFuncB type="discrete" tableValues="0 0"/><feFuncA type="linear" slope="0.14902" intercept="0"/></feComponentTransfer><feGaussianBlur stdDeviation="2.22222 2.22222"/></filter><clipPath id="clip7"><rect x="0" y="0" width="1280" height="720"/></clipPath></defs><g clip-path="url(#clip7)"><rect x="0" y="0" width="1280" height="720" fill="#FAF9F6"/><g filter="url(#fx0)" transform="translate(-10 -5)"><g><rect x="11.72" y="12.2" width="168.56" height="705.6" fill="#FFFFFF"/></g></g><rect x="0" y="0" width="172" height="720" fill="#FFFFFF"/><g filter="url(#fx1)" transform="translate(226 118)"><g><path d="M8 15.3335C8 11.2833 11.2833 8 15.3335 8L157.666 8C161.717 8 165 11.2833 165 15.3335L165 116.666C165 120.717 161.717 124 157.666 124L15.3335 124C11.2833 124 8 120.717 8 116.666Z" fill="#FFFFFF" fill-rule="evenodd"/></g></g><path d="M234 133.334C234 129.283 237.283 126 241.334 126L383.666 126C387.717 126 391 129.283 391 133.334L391 234.666C391 238.717 387.717 242 383.666 242L241.334 242C237.283 242 234 238.717 234 234.666Z" fill="#FFFFFF" fill-rule="evenodd"/><g filter="url(#fx2)" transform="translate(226 254)"><g><path d="M8 15.3335C8 11.2833 11.2833 8 15.3335 8L331.667 8C335.717 8 339 11.2833 339 15.3335L339 116.667C339 120.717 335.717 124 331.667 124L15.3335 124C11.2833 124 8 120.717 8 116.667Z" fill="#FFFFFF" fill-rule="evenodd"/></g></g><path d="M234 269.333C234 265.283 237.283 262 241.333 262L557.667 262C561.717 262 565 265.283 565 269.333L565 370.667C565 374.717 561.717 378 557.667 378L241.333 378C237.283 378 234 374.717 234 370.667Z" fill="#FFFFFF" fill-rule="evenodd"/><g filter="url(#fx3)" transform="translate(226 391)"><g><path d="M8 24.5633C8 15.4156 15.4156 8 24.5633 8L982.437 8C991.584 8 999 15.4156 999 24.5633L999 253.437C999 262.584 991.584 270 982.437 270L24.5633 270C15.4156 270 8 262.584 8 253.437Z" fill="#FFFFFF" fill-rule="evenodd"/></g></g><path d="M234 415.563C234 406.416 241.416 399 250.563 399L1208.44 399C1217.58 399 1225 406.416 1225 415.563L1225 644.437C1225 653.584 1217.58 661 1208.44 661L250.563 661C241.416 661 234 653.584 234 644.437Z" fill="#FFFFFF" fill-rule="evenodd"/><g filter="url(#fx4)" transform="translate(578 118)"><g><path d="M8 23.9945C8 15.161 15.161 8 23.9945 8L303.005 8C311.839 8 319 15.161 319 23.9945L319 245.005C319 253.839 311.839 261 303.005 261L23.9945 261C15.161 261 8 253.839 8 245.005Z" fill="#FFFFFF" fill-rule="evenodd"/></g></g><path d="M586 141.995C586 133.161 593.161 126 601.995 126L881.005 126C889.839 126 897 133.161 897 141.995L897 363.005C897 371.839 889.839 379 881.005 379L601.995 379C593.161 379 586 371.839 586 363.005Z" fill="#FFFFFF" fill-rule="evenodd"/><g filter="url(#fx5)" transform="translate(910 117)"><g><path d="M8 23.9946C8 15.161 15.161 8 23.9946 8L299.005 8C307.839 8 315 15.161 315 23.9946L315 245.005C315 253.839 307.839 261 299.005 261L23.9946 261C15.161 261 8 253.839 8 245.005Z" fill="#FFFFFF" fill-rule="evenodd"/></g></g><path d="M918 140.995C918 132.161 925.161 125 933.995 125L1209.01 125C1217.84 125 1225 132.161 1225 140.995L1225 362.005C1225 370.839 1217.84 378 1209.01 378L933.995 378C925.161 378 918 370.839 918 362.005Z" fill="#FFFFFF" fill-rule="evenodd"/><path d="M574 127.5C574 119.492 580.94 113 589.5 113 598.06 113 605 119.492 605 127.5 605 135.508 598.06 142 589.5 142 580.94 142 574 135.508 574 127.5Z" fill="#FFFFFF" fill-rule="evenodd"/><path d="M221 265.5C221 257.492 227.716 251 236 251 244.284 251 251 257.492 251 265.5 251 273.508 244.284 280 236 280 227.716 280 221 273.508 221 265.5Z" fill="#FFFFFF" fill-rule="evenodd"/><path d="M222 398.5C222 390.492 228.94 384 237.5 384 246.06 384 253 390.492 253 398.5 253 406.508 246.06 413 237.5 413 228.94 413 222 406.508 222 398.5Z" fill="#FFFFFF" fill-rule="evenodd"/><g><g><g><path d="M586.335 127.3C583.898 126.651 581.397 128.101 580.749 130.537 580.1 132.973 581.549 135.474 583.986 136.123 586.422 136.772 588.923 135.323 589.572 132.886 589.572 132.886 589.572 132.886 589.572 132.886 590.22 130.45 588.771 127.949 586.335 127.3ZM585.067 134.004 584.094 135.029 583.12 134.004 581.844 133.395 582.519 132.152 582.703 130.75 584.094 131.008 585.484 130.75 585.669 132.152 586.344 133.395Z" fill="#5C6AED"/><path d="M585.359 132.653C585.359 133.352 584.792 133.918 584.094 133.918 583.395 133.918 582.829 133.352 582.829 132.653 582.829 131.955 583.395 131.388 584.094 131.388 584.792 131.388 585.359 131.955 585.359 132.653Z" fill="#5C6AED"/><path d="M588.352 120.719C586.368 119.166 583.5 119.515 581.946 121.499 580.643 123.163 580.653 125.504 581.971 127.157 583.313 126.21 585.006 125.908 586.592 126.333 586.97 126.435 587.336 126.575 587.684 126.753 588.074 125.619 588.822 124.643 589.815 123.973 589.9 123.915 589.987 123.863 590.075 123.811 589.941 122.59 589.32 121.475 588.352 120.719ZM586.279 122.895 586.388 124.259 585.02 124.297 583.756 124.822 583.297 123.533 582.407 122.493 583.492 121.658 584.205 120.49 585.334 121.265 586.666 121.582Z" fill="#5C6AED"/><path d="M585.913 122.719C585.913 123.396 585.365 123.944 584.689 123.944 584.013 123.944 583.464 123.396 583.464 122.719 583.464 122.043 584.013 121.495 584.689 121.495 585.365 121.495 585.913 122.043 585.913 122.719Z" fill="#5C6AED"/><path d="M596.715 126.023C595.303 123.935 592.465 123.388 590.376 124.8 589.497 125.395 588.852 126.278 588.554 127.297 590.155 128.532 590.962 130.537 590.662 132.536 592.845 133.794 595.635 133.043 596.892 130.86 597.764 129.347 597.695 127.469 596.715 126.023ZM595.154 128.6 594.696 129.896 593.427 129.371 592.053 129.336 592.16 127.966 591.768 126.65 593.104 126.328 594.235 125.549 594.954 126.72 596.045 127.555Z" fill="#5C6AED"/><path d="M594.996 127.789C594.996 128.468 594.446 129.018 593.768 129.018 593.089 129.018 592.539 128.468 592.539 127.789 592.539 127.111 593.089 126.561 593.768 126.561 594.446 126.561 594.996 127.111 594.996 127.789Z" fill="#5C6AED"/></g></g></g><g><g><g><path d="M245.5 272C245.5 272.325 245.125 272.625 244.5 272.85L244.5 271.95C244.85 271.85 245.2 271.7 245.5 271.55L245.5 272ZM243.5 270.35 243.5 269.45C243.85 269.35 244.2 269.2 244.5 269.05L244.5 269.5C244.5 269.825 244.125 270.125 243.5 270.35ZM243.5 273.15C243.2 273.225 242.85 273.275 242.5 273.325L242.5 272.35C242.825 272.3 243.175 272.25 243.5 272.2L243.5 273.15ZM241.5 269.85C241.825 269.8 242.175 269.75 242.5 269.7L242.5 270.65C242.2 270.725 241.85 270.775 241.5 270.825L241.5 269.85ZM241.5 273.45C241.175 273.475 240.85 273.5 240.5 273.5L240.5 272.5C240.8 272.5 241.15 272.475 241.5 272.45L241.5 273.45ZM239.5 271 239.5 270C239.8 270 240.15 269.975 240.5 269.95L240.5 270.95C240.175 270.975 239.85 270.975 239.5 271ZM239.5 273.5C239.15 273.5 238.825 273.475 238.5 273.45L238.5 272.5C238.675 272.5 238.825 272.5 239 272.5 239.15 272.5 239.325 272.5 239.5 272.5L239.5 273.5ZM237.5 269.95C237.825 269.975 238.15 270 238.5 270L238.5 271C238.15 271 237.825 270.975 237.5 270.95L237.5 269.95ZM237.5 273.325C237.15 273.275 236.8 273.225 236.5 273.15L236.5 272.35C236.825 272.4 237.15 272.425 237.5 272.45L237.5 273.325ZM235.5 270.65 235.5 269.675C235.825 269.725 236.15 269.8 236.5 269.825L236.5 270.825C236.15 270.775 235.8 270.725 235.5 270.65ZM235.5 272.85C234.875 272.6 234.5 272.3 234.5 272L234.5 271.95C234.5 271.95 234.5 271.95 234.525 271.95 234.6 271.975 234.65 272 234.725 272 234.975 272.075 235.225 272.125 235.5 272.175L235.5 272.85ZM231.5 269.45C231.675 269.45 231.825 269.475 232 269.475L232 269.5C232 269.85 232.075 270.2 232.25 270.475 232 270.475 231.75 270.45 231.5 270.425L231.5 269.45ZM230.5 266.45C230.825 266.5 231.15 266.575 231.5 266.6L231.5 267.6C231.15 267.55 230.8 267.5 230.5 267.425L230.5 266.45ZM230.5 270.325C230.15 270.275 229.8 270.225 229.5 270.15L229.5 269.175C229.825 269.225 230.15 269.3 230.5 269.325L230.5 270.325ZM228.5 266.25 228.5 265.8C228.8 265.95 229.125 266.075 229.5 266.175L229.5 267.1C228.875 266.875 228.5 266.575 228.5 266.25ZM228.5 269.85C227.875 269.6 227.5 269.3 227.5 269L227.5 268.55C227.8 268.7 228.125 268.825 228.5 268.925L228.5 269.85ZM227.5 262.05C227.8 262.2 228.125 262.325 228.5 262.425L228.5 263.35C227.875 263.1 227.5 262.8 227.5 262.5L227.5 262.05ZM230.5 262.85 230.5 263.85C230.15 263.8 229.8 263.75 229.5 263.675L229.5 262.7C229.825 262.75 230.15 262.8 230.5 262.85ZM233 258.5C236.05 258.5 238.5 259.175 238.5 260 238.5 260.825 236.05 261.5 233 261.5 229.95 261.5 227.5 260.825 227.5 260 227.5 259.175 229.95 258.5 233 258.5ZM234.5 270.35C233.875 270.1 233.5 269.8 233.5 269.5L233.5 269.05C233.8 269.2 234.125 269.325 234.5 269.425L234.5 270.35ZM237.5 263.35 237.5 262.45C237.85 262.35 238.2 262.2 238.5 262.05L238.5 262.5C238.5 262.825 238.125 263.125 237.5 263.35ZM235.5 263.825 235.5 262.85C235.825 262.8 236.175 262.75 236.5 262.7L236.5 263.65C236.2 263.725 235.85 263.775 235.5 263.825ZM233.5 264 233.5 263C233.8 263 234.15 262.975 234.5 262.95L234.5 263.95C234.175 263.975 233.85 263.975 233.5 264ZM231.5 263.95 231.5 262.95C231.825 262.975 232.15 263 232.5 263L232.5 264C232.15 263.975 231.825 263.975 231.5 263.95ZM244.5 267C244.5 267.825 242.05 268.5 239 268.5 235.95 268.5 233.5 267.825 233.5 267 233.5 266.175 235.95 265.5 239 265.5 242.05 265.5 244.5 266.175 244.5 267ZM246 267.75 246 267C246 265.825 245.075 264.975 243.275 264.5 242.6 264.325 241.825 264.175 240.95 264.1 240.975 264 240.975 263.875 240.975 263.75 240.975 263.05 240.65 262.45 239.975 262L239.975 260C239.975 258.825 239.05 257.975 237.25 257.5 236.075 257.175 234.575 257 232.975 257 230.875 257 225.975 257.3 225.975 260L225.975 262.5C225.975 263.2 226.3 263.8 226.975 264.25L226.975 264.725C226.375 265.15 225.975 265.725 225.975 266.5L225.975 269C225.975 270.175 226.9 271.025 228.7 271.5 229.875 271.825 231.375 272 232.975 272 232.975 273.175 233.9 274.025 235.7 274.5 236.875 274.825 238.375 275 239.975 275 242.075 275 246.975 274.7 246.975 272L246.975 269.5C247 268.8 246.675 268.2 246 267.75Z" fill="#5C6AED"/></g></g></g><g><g><g><path d="M244 394 244 396 242 396 242 394 244 394ZM230 403 232 403 232 405 230 405 230 403ZM235 394 235 396 233 396 233 394 235 394ZM238 394 238 396 236 396 236 394 238 394ZM241 399 239 399 239 397 241 397 241 399ZM242 399 242 397 244 397 244 399 242 399ZM242 402 242 400 244 400 244 402 242 402ZM236 403 238 403 238 405 236 405 236 403ZM235 403 235 405 233 405 233 403 235 403ZM233 400 235 400 235 402 233 402 233 400ZM232 400 232 402 230 402 230 400 232 400ZM232 397 232 399 230 399 230 397 232 397ZM235 399 233 399 233 397 235 397 235 399ZM236 399 236 397 238 397 238 399 236 399ZM238 402 236 402 236 400 238 400 238 402ZM239 402 239 400 241 400 241 402 239 402ZM241 394 241 396 239 396 239 394 241 394ZM228.5 392.5 228.5 406.5 245.5 406.5 245.5 392.5 228.5 392.5Z" fill="#5C6AED"/><path d="M228.5 389.5 245.5 389.5 245.5 391.5 228.5 391.5Z" fill="#5C6AED"/></g></g></g><g filter="url(#fx6)" transform="translate(402 118)"><g><path d="M8 15.3335C8 11.2833 11.2833 8 15.3335 8L157.666 8C161.717 8 165 11.2833 165 15.3335L165 116.666C165 120.717 161.717 124 157.666 124L15.3335 124C11.2833 124 8 120.717 8 116.666Z" fill="#FFFFFF" fill-rule="evenodd"/></g></g><path d="M410 133.334C410 129.283 413.283 126 417.334 126L559.666 126C563.717 126 567 129.283 567 133.334L567 234.666C567 238.717 563.717 242 559.666 242L417.334 242C413.283 242 410 238.717 410 234.666Z" fill="#FFFFFF" fill-rule="evenodd"/><path d="M398 127C398 119.268 404.716 113 413 113 421.284 113 428 119.268 428 127 428 134.732 421.284 141 413 141 404.716 141 398 134.732 398 127Z" fill="#FFFFFF" fill-rule="evenodd"/><path d="M905 127.5C905 119.492 911.94 113 920.5 113 929.06 113 936 119.492 936 127.5 936 135.508 929.06 142 920.5 142 911.94 142 905 135.508 905 127.5Z" fill="#FFFFFF" fill-rule="evenodd"/><g><g><g><path d="M11.4966 2.39464C6.47134 2.39464 2.39751 6.46846 2.39751 11.4938 2.39751 16.5191 6.47134 20.5929 11.4966 20.5929 16.522 20.5929 20.5958 16.5191 20.5958 11.4938 20.598 6.47071 16.5278 2.39689 11.5048 2.39464 11.5021 2.39463 11.4994 2.39463 11.4966 2.39464ZM9.38017 15.3573 7.99609 15.3573 7.99609 8.74671C7.87918 8.82656 7.75579 8.90347 7.62594 8.97743 7.49615 9.05163 7.36206 9.11801 7.2244 9.17628 7.07569 9.23443 6.91924 9.28872 6.75505 9.3392 6.59087 9.38968 6.41053 9.43879 6.21407 9.48654L6.21407 8.38062C6.34649 8.34373 6.46707 8.30667 6.57584 8.26946 6.68461 8.23225 6.79212 8.19512 6.89832 8.15805 7.00398 8.11565 7.11035 8.0718 7.21649 8.02676 7.32262 7.98172 7.42852 7.93787 7.53466 7.89547 7.63528 7.84259 7.73727 7.78957 7.8406 7.73639 7.94394 7.6832 8.04617 7.6273 8.14727 7.56868 8.25908 7.51039 8.36905 7.44649 8.47718 7.37701 8.5853 7.30753 8.69544 7.24363 8.80756 7.18534L9.38017 7.18534ZM16.5852 13.1138C16.4796 13.5859 16.2809 14.0322 16.0006 14.4265 15.4993 15.1258 14.6801 15.5263 13.8204 15.4924 13.4122 15.5015 13.0076 15.4142 12.6395 15.2375 12.2884 15.0556 11.9848 14.794 11.753 14.4737 11.2596 13.801 11.0129 12.8148 11.0129 11.5151 11.0039 10.8871 11.0665 10.2601 11.1996 9.64634 11.3042 9.16159 11.503 8.70207 11.7846 8.2939 12.2889 7.57455 13.1263 7.16333 14.0039 7.20403 15.8493 7.20403 16.7721 8.57763 16.7723 11.3249 16.7803 11.9265 16.7175 12.5269 16.5852 13.1138Z" fill="#5C6AED" transform="matrix(1 0 0 1.04348 909 116)"/><path d="M13.9404 8.25341C12.9164 8.25341 12.4046 9.32202 12.4049 11.4593 12.4049 12.4617 12.5309 13.2124 12.7827 13.7114 12.9697 14.1675 13.4158 14.4637 13.9088 14.4591 14.8896 14.4591 15.3801 13.4435 15.3803 11.4123 15.3803 10.3465 15.2636 9.55363 15.0303 9.03373 14.7969 8.51383 14.4336 8.25372 13.9404 8.25341Z" fill="#5C6AED" transform="matrix(1 0 0 1.04348 909 116)"/></g></g></g><g><g><g><path d="M419.5 130.25C418.95 130.25 418.5 129.8 418.5 129.25 418.5 128.7 418.95 128.25 419.5 128.25 420.05 128.25 420.5 128.7 420.5 129.25 420.5 129.8 420.05 130.25 419.5 130.25ZM422 126.75 421.5 126.75 421.5 124C421.5 123.45 421.05 123 420.5 123L406.5 123C406.225 123 406 122.775 406 122.5 406 122.225 406.225 122 406.5 122L420.5 122 420.5 121.5C420.5 120.95 420.05 120.5 419.5 120.5L406.5 120.5C405.4 120.5 404.5 121.4 404.5 122.5L404.5 133.5C404.5 134.6 405.4 135.5 406.5 135.5L420.5 135.5C421.05 135.5 421.5 135.05 421.5 134.5L421.5 131.75 422 131.75C422.275 131.75 422.5 131.525 422.5 131.25L422.5 127.25C422.5 126.975 422.275 126.75 422 126.75Z" fill="#5C6AED"/></g></g></g><g><g><g><path d="M13.3333 6.25C13.3333 8.09095 11.8409 9.58333 10 9.58333 8.15905 9.58333 6.66667 8.09095 6.66667 6.25 6.66667 4.40905 8.15905 2.91667 10 2.91667 11.8409 2.91667 13.3333 4.40905 13.3333 6.25Z" fill="#A6A6A6" transform="matrix(1.05 0 0 1 14 129)"/><path d="M16.6667 17.0833 16.6667 13.75C16.6667 13.25 16.4167 12.75 16 12.4167 15.0833 11.6667 13.9167 11.1667 12.75 10.8333 11.9167 10.5833 11 10.4167 10 10.4167 9.08333 10.4167 8.16667 10.5833 7.25 10.8333 6.08333 11.1667 4.91667 11.75 4 12.4167 3.58333 12.75 3.33333 13.25 3.33333 13.75L3.33333 17.0833 16.6667 17.0833Z" fill="#A6A6A6" transform="matrix(1.05 0 0 1 14 129)"/></g></g></g><g><g><g><path d="M13.1104 10.4167C12.4062 9.81667 11.4917 9.53542 10.625 9.26458L10.625 4.22708C11.4665 4.30704 12.2528 4.68104 12.8458 5.28333L13.8458 4.325C12.99 3.45444 11.8433 2.93 10.625 2.85208L10.625 1.04167 9.375 1.04167 9.375 2.93125C8.94696 3.01456 8.53398 3.16206 8.15 3.36875 6.57083 4.22917 5.76458 6.25 6.4125 7.95208 6.91458 9.26458 8.125 9.85 9.375 10.2896L9.375 15.7437C8.40625 15.625 7.60208 15.0688 6.93542 14.375L5.93542 15.3312C6.41156 15.8715 6.97929 16.3236 7.6125 16.6667 8.16594 16.9299 8.76369 17.0875 9.375 17.1313L9.375 18.9583 10.625 18.9583 10.625 17.0833C12.0583 16.8438 13.375 15.9625 13.9417 14.5833 14.5083 13.2042 14.3021 11.4354 13.1104 10.4167ZM8.33333 8.27708C7.1875 7.31042 7.46667 5.43958 8.68125 4.66458 8.89652 4.52652 9.13002 4.41923 9.375 4.34583L9.375 8.86458C8.99781 8.7274 8.64587 8.5289 8.33333 8.27708ZM12.1021 14.9062C11.6955 15.3038 11.1824 15.5751 10.625 15.6875L10.625 10.7104C11.4583 10.9958 12.4146 11.3583 12.7542 12.2458 13.0937 13.1333 12.7521 14.2438 12.1021 14.9062Z" fill="#A6A6A6" transform="matrix(1.05 0 0 1 14 91)"/></g></g></g><g><g><g><path d="M28.9583 170.229C28.9583 171.15 28.2121 171.896 27.2917 171.896 26.3712 171.896 25.625 171.15 25.625 170.229 25.625 169.309 26.3712 168.562 27.2917 168.562 28.2121 168.562 28.9583 169.309 28.9583 170.229Z" fill="#5C6AED"/><path d="M19.7917 178.354C17.8333 178.354 16.25 179.938 16.25 181.896 16.25 183.854 17.8333 185.438 19.7917 185.438 21.75 185.438 23.3333 183.854 23.3333 181.896 23.3333 179.938 21.75 178.354 19.7917 178.354ZM19.7917 184.604C18.2917 184.604 17.0833 183.396 17.0833 181.896 17.0833 180.396 18.2917 179.188 19.7917 179.188 21.2917 179.188 22.5 180.396 22.5 181.896 22.5 183.396 21.2917 184.604 19.7917 184.604Z" fill="#5C6AED"/><path d="M30.2083 178.354C28.25 178.354 26.6667 179.938 26.6667 181.896 26.6667 183.854 28.25 185.438 30.2083 185.438 32.1667 185.438 33.75 183.854 33.75 181.896 33.75 179.938 32.1667 178.354 30.2083 178.354ZM30.2083 184.604C28.7083 184.604 27.5 183.396 27.5 181.896 27.5 180.396 28.7083 179.188 30.2083 179.188 31.7083 179.188 32.9167 180.396 32.9167 181.896 32.9167 183.396 31.7083 184.604 30.2083 184.604Z" fill="#5C6AED"/><path d="M26.6042 175.292C26.7708 175.458 26.9792 175.542 27.1875 175.542L29.5833 175.542C30.0417 175.542 30.4167 175.167 30.4167 174.708 30.4167 174.25 30.0417 173.875 29.5833 173.875L27.5417 173.875C27.5417 173.875 25.1667 171.479 25.125 171.458 24.6042 171 23.8125 171.062 23.3542 171.583L20.5208 174.812C20.0625 175.333 20.125 176.125 20.625 176.583 20.75 176.688 20.875 176.771 21.0208 176.812L21.0208 176.812 24.1458 178.062 24.1458 181.875C24.1458 182.333 24.5208 182.708 24.9792 182.708 25.4375 182.708 25.8125 182.333 25.8125 181.875L25.8125 177.5C25.8125 177.167 25.6042 176.854 25.3125 176.729L23 175.75 24.8958 173.583 26.6042 175.292Z" fill="#5C6AED"/></g></g></g><path d="M8.50005 74.5001 164.5 74.5002" stroke="#5C6AED" stroke-width="0.666667" stroke-miterlimit="8" fill="none" fill-rule="evenodd"/><path d="M9.50005 204.5 164.689 204.5" stroke="#5C6AED" stroke-width="0.666667" stroke-miterlimit="8" fill="none" fill-rule="evenodd"/><path d="M223 128.5C223 120.492 229.716 114 238 114 246.284 114 253 120.492 253 128.5 253 136.508 246.284 143 238 143 229.716 143 223 136.508 223 128.5Z" fill="#FFFFFF" fill-rule="evenodd"/><g><g><g><path d="M16.7708 0.479167 6.22917 0.479167C5.70055 0.480745 5.27241 0.908883 5.27083 1.4375L5.27083 21.5625C5.27241 22.0911 5.70055 22.5193 6.22917 22.5208L16.7708 22.5208C17.2994 22.5193 17.7276 22.0911 17.7292 21.5625L17.7292 1.4375C17.7276 0.908883 17.2994 0.480745 16.7708 0.479167ZM10.6615 1.4375 12.3385 1.4375C12.537 1.4375 12.6979 1.5984 12.6979 1.79688 12.6979 1.99535 12.537 2.15625 12.3385 2.15625L10.6615 2.15625C10.463 2.15625 10.3021 1.99535 10.3021 1.79688 10.3021 1.5984 10.463 1.4375 10.6615 1.4375ZM16.7708 19.8854 6.22917 19.8854 6.22917 3.11458 16.7708 3.11458Z" fill="#5C6AED" transform="matrix(1.04348 0 0 1 225 117)"/><path d="M9.75224 9.407 8.64033 9.407 8.64033 8.69927 9.75224 8.69927ZM11.2686 8.69927 11.2686 9.407 10.1567 9.407 10.1567 8.69927ZM12.7851 8.69927 12.7851 9.407 11.673 9.407 11.673 8.69927ZM14.3014 8.69927 14.3014 9.407 13.1895 9.407 13.1895 8.69927ZM14.3014 10.5201 13.1895 10.5201 13.1895 9.81142 14.3014 9.81142ZM14.3014 11.3792 13.1895 11.4804 13.1895 10.9233 14.3014 10.9233ZM9.75224 10.924 9.75224 11.7827 8.64033 11.8838 8.64033 10.9233ZM9.75224 10.5199 8.64033 10.5199 8.64033 9.81142 9.75224 9.81142ZM11.2686 10.5199 10.1567 10.5199 10.1567 9.81142 11.2686 9.81142ZM11.673 10.5199 11.673 9.81142 12.7851 9.81142 12.7851 10.5191ZM11.2686 11.6521 10.1567 11.7532 10.1567 10.9233 11.2686 10.9233ZM11.673 10.924 12.7851 10.924 12.7851 11.5105 11.673 11.6116ZM14.9074 11.9351 14.9074 8.09289 8.64033 8.09289 8.64033 7.99178C8.64273 7.49136 8.23898 7.08376 7.73856 7.08136 7.73569 7.08134 7.73279 7.08134 7.72992 7.08136 7.5624 7.08136 7.4266 7.21716 7.4266 7.38468 7.4266 7.55219 7.5624 7.68799 7.72992 7.68799 7.89437 7.68492 8.03016 7.81574 8.03323 7.98019 8.0333 7.98388 8.0333 7.98759 8.03323 7.9913L8.03323 13.0465C8.03083 13.5469 8.43458 13.9545 8.935 13.9569 8.93787 13.957 8.94077 13.957 8.94365 13.9569L14.605 13.9569C14.7724 13.9616 14.912 13.8297 14.9167 13.6623 14.9214 13.4948 14.7895 13.3552 14.6221 13.3505 14.6164 13.3504 14.6107 13.3504 14.605 13.3505L8.94341 13.3505C8.77896 13.3535 8.64328 13.2226 8.64033 13.0581 8.64026 13.0545 8.64026 13.0508 8.64033 13.0472L8.64033 12.4904Z" fill="#5C6AED" transform="matrix(1.04348 0 0 1 225 117)"/><path d="M9.85334 14.5628C9.85334 14.8979 9.58175 15.1695 9.24672 15.1695 8.91169 15.1695 8.64009 14.8979 8.64009 14.5628 8.64009 14.2278 8.91169 13.9562 9.24672 13.9562 9.58175 13.9562 9.85334 14.2278 9.85334 14.5628Z" fill="#5C6AED" transform="matrix(1.04348 0 0 1 225 117)"/><path d="M14.3014 14.5628C14.3014 14.8979 14.0299 15.1695 13.6948 15.1695 13.3598 15.1695 13.0882 14.8979 13.0882 14.5628 13.0882 14.2278 13.3598 13.9562 13.6948 13.9562 14.0299 13.9562 14.3014 14.2278 14.3014 14.5628Z" fill="#5C6AED" transform="matrix(1.04348 0 0 1 225 117)"/></g></g></g><g><g><g><path d="M47.125 30.6354C47.125 32.1254 45.9171 33.3333 44.4271 33.3333 42.9371 33.3333 41.7292 32.1254 41.7292 30.6354 41.7292 29.1454 42.9371 27.9375 44.4271 27.9375 45.9171 27.9375 47.125 29.1454 47.125 30.6354Z" fill="#5C6AED"/><path d="M37.875 46.8229C37.875 49.1644 35.9769 51.0625 33.6354 51.0625 31.294 51.0625 29.3958 49.1644 29.3958 46.8229 29.3958 44.4815 31.294 42.5833 33.6354 42.5833 35.9769 42.5833 37.875 44.4815 37.875 46.8229Z" fill="#5C6AED"/><path d="M55.6042 46.8229C55.6042 49.1644 53.706 51.0625 51.3646 51.0625 49.0231 51.0625 47.125 49.1644 47.125 46.8229 47.125 44.4815 49.0231 42.5833 51.3646 42.5833 53.706 42.5833 55.6042 44.4815 55.6042 46.8229Z" fill="#5C6AED"/><path d="M43.7333 39.8083 41.8063 39.6156 43.6177 36.4938 47.7417 38.7292C47.7031 38.7677 47.7031 38.8063 47.6646 38.8448L44.4271 40.6562 44.4271 40.5792C44.4271 40.1937 44.1188 39.8469 43.7333 39.8083ZM51.3646 41.4271C52.0969 41.4271 52.7906 41.5812 53.4073 41.851 53.7927 41.1573 54.0625 40.3479 54.0625 39.5 54.0625 36.9562 51.9812 34.875 49.4375 34.875 48.8979 34.875 48.3969 34.9906 47.8958 35.1448 48.0885 35.5302 48.2042 35.9542 48.2427 36.4167L43.0396 33.5646C42.9625 33.526 42.8854 33.4875 42.8083 33.4875 41.9219 33.1406 40.9198 33.449 40.4187 34.2969L37.7208 38.9219C37.6823 38.999 37.6437 39.1146 37.6052 39.1917L29.3958 38.3438 29.3958 39.8854 35.1771 41.6583C37.4125 42.3135 39.0312 44.3948 39.0312 46.8229 39.0312 47.3625 38.9542 47.8635 38.8 48.3646L46.2 48.3646C46.0458 47.8635 45.9688 47.3625 45.9688 46.8229 45.9688 43.8552 48.3969 41.4271 51.3646 41.4271Z" fill="#5C6AED"/></g></g></g><text fill="#5C6AED" font-family="Aptos Black,Aptos Black_MSFontService,sans-serif" font-weight="900" font-size="13" transform="translate(76.4534 37)">Adventure</text><text fill="#5C6AED" font-family="Aptos Black,Aptos Black_MSFontService,sans-serif" font-weight="900" font-size="13" transform="translate(76.4534 53)">Works</text></g></svg>